<?xml version="1.0" standalone="no"?>
<!DOCTYPE svg PUBLIC "-//W3C//DTD SVG 20010904//EN"
 "http://www.w3.org/TR/2001/REC-SVG-20010904/DTD/svg10.dtd">
<svg version="1.0" xmlns="http://www.w3.org/2000/svg"
 width="225.000000pt" height="225.000000pt" viewBox="0 0 225.000000 225.000000"
 preserveAspectRatio="xMidYMid meet">
<metadata>
Created by potrace 1.14, written by Peter Selinger 2001-2017
</metadata>
<g transform="translate(0.000000,225.000000) scale(0.100000,-0.100000)"
fill="#000000" stroke="none">
<path d="M456 1984 c-3 -9 -6 -26 -6 -38 0 -15 -18 -39 -50 -68 -47 -43 -50
-48 -50 -95 0 -70 10 -113 26 -113 11 0 14 17 14 70 0 39 4 70 9 70 5 0 7 -60
4 -141 -4 -129 -7 -146 -34 -202 -16 -34 -29 -72 -29 -84 0 -21 5 -23 48 -23
l47 0 -24 19 -24 19 31 54 c17 30 33 73 37 94 15 94 15 94 86 72 l39 -11 0
-74 0 -73 28 1 c15 0 36 4 46 8 19 7 18 8 -3 14 -23 6 -24 8 -17 81 l7 75 -71
41 c-38 23 -70 49 -70 57 0 10 6 13 18 8 9 -4 32 -9 50 -12 46 -8 41 14 -8 35
-34 15 -42 25 -61 76 -19 53 -20 60 -5 68 21 12 22 74 0 82 -24 9 -31 7 -38
-10z"/>
<path d="M1504 1831 c-2 -2 -4 -210 -4 -462 l0 -458 96 -3 c53 -2 98 -1 100 1
2 2 4 177 4 387 l0 383 128 3 127 3 3 73 c2 39 -1 72 -5 72 -127 3 -446 4
-449 1z"/>
<path d="M1107 1588 c-22 -126 -76 -463 -103 -640 l-5 -36 67 -4 c45 -2 68 1
71 9 3 7 10 49 17 95 l11 83 47 3 46 3 7 -58 c3 -32 8 -75 11 -95 l6 -38 84 0
c82 0 84 1 79 23 -2 12 -23 175 -45 362 -22 187 -43 350 -45 363 -5 21 -9 22
-119 22 l-114 0 -15 -92z m127 -165 c4 -65 9 -139 13 -165 l6 -48 -32 0 c-27
0 -31 3 -31 28 -1 58 24 302 30 302 4 0 10 -53 14 -117z"/>
<path d="M790 1285 l0 -255 -45 0 -45 0 0 209 0 209 -75 1 -75 1 0 -210 0
-210 -45 0 -45 0 0 160 0 161 -77 -3 -78 -3 -3 -217 -2 -218 324 0 324 0 -2
313 -1 312 -77 3 -78 3 0 -256z"/>
<path d="M483 840 c-14 -6 -23 -19 -24 -32 -1 -13 -3 -42 -4 -66 -4 -50 19
-82 60 -82 42 0 65 33 65 93 0 29 -6 61 -12 70 -17 21 -57 29 -85 17z m47 -84
c0 -30 -4 -58 -10 -61 -6 -4 -10 17 -10 54 0 34 4 61 10 61 6 0 10 -24 10 -54z"/>
<path d="M1403 840 c-26 -11 -38 -58 -29 -116 10 -63 65 -85 106 -44 29 29 26
60 -5 60 -18 0 -25 -5 -25 -19 0 -11 -4 -23 -10 -26 -6 -4 -10 7 -10 24 0 29
3 31 35 31 32 0 35 3 35 28 0 33 -8 45 -37 61 -25 13 -30 13 -60 1z m34 -52
c-3 -7 -5 -2 -5 12 0 14 2 19 5 13 2 -7 2 -19 0 -25z"/>
<path d="M1573 843 l-43 -4 0 -100 c0 -99 0 -99 25 -99 16 0 25 6 25 16 0 10
6 13 19 9 10 -3 26 -3 35 1 31 12 18 192 -13 182 -4 -1 -25 -3 -48 -5z m27
-94 c0 -37 -4 -58 -10 -54 -5 3 -10 31 -10 61 0 30 5 54 10 54 6 0 10 -27 10
-61z"/>
<path d="M1863 840 c-30 -12 -31 -55 -3 -63 13 -3 20 0 20 8 0 8 5 17 10 20 6
3 10 -3 10 -13 0 -13 -10 -24 -31 -31 -28 -10 -30 -13 -27 -53 l3 -43 55 0 55
0 3 70 c2 46 -2 76 -10 87 -16 21 -56 30 -85 18z m37 -127 c0 -19 -3 -24 -10
-17 -6 6 -8 18 -4 27 9 24 14 21 14 -10z"/>
<path d="M300 757 c0 -46 2 -86 5 -89 3 -3 17 -3 30 0 21 4 25 10 26 41 l1 36
12 -39 c9 -28 19 -40 34 -43 19 -2 22 2 22 29 0 17 -7 39 -15 48 -14 15 -14
18 0 30 8 7 15 25 15 41 0 24 -4 29 -24 29 -19 0 -26 -7 -34 -37 -8 -32 -10
-34 -12 -13 -1 14 -2 31 -1 38 1 7 -10 12 -29 12 l-30 0 0 -83z"/>
<path d="M610 750 c0 -83 1 -90 20 -90 17 0 20 7 20 46 0 27 4 43 10 39 6 -3
10 -19 10 -34 0 -29 24 -59 34 -43 3 5 9 29 13 53 l8 44 5 -50 c4 -42 8 -50
25 -50 18 0 20 8 23 88 l3 87 -35 0 c-34 0 -36 -2 -42 -41 -7 -45 -24 -35 -24
14 0 24 -4 27 -35 27 l-35 0 0 -90z"/>
<path d="M807 759 c2 -84 10 -106 37 -96 13 5 16 22 16 77 0 92 18 91 22 -2 3
-68 5 -73 26 -74 21 -1 22 2 22 87 l0 89 -62 0 -63 0 2 -81z"/>
<path d="M960 804 c0 -31 2 -35 15 -24 8 7 15 23 15 36 0 15 -6 24 -15 24 -11
0 -15 -11 -15 -36z"/>
<path d="M1020 750 c0 -89 0 -90 25 -90 24 0 31 15 26 57 -1 6 3 14 9 18 5 3
10 -2 10 -12 0 -10 7 -28 15 -40 12 -17 22 -21 53 -17 47 6 62 26 62 87 0 69
-12 87 -60 87 -42 0 -70 -20 -70 -51 0 -11 -4 -18 -8 -15 -5 3 -8 19 -7 36 2
27 -1 30 -27 30 l-28 0 0 -90z m149 5 c-3 -76 -19 -81 -19 -6 0 36 4 61 11 61
6 0 9 -22 8 -55z"/>
<path d="M1240 825 c0 -8 7 -15 15 -15 11 0 15 -17 17 -72 3 -68 5 -73 26 -74
21 -1 22 2 22 72 0 65 2 74 18 74 10 0 19 7 19 15 0 12 -13 15 -59 15 -45 0
-58 -3 -58 -15z"/>
<path d="M1680 750 c0 -89 0 -90 25 -90 22 0 25 4 25 35 0 24 5 35 15 35 11 0
15 -11 15 -36 0 -31 3 -35 23 -32 21 3 22 8 25 91 3 87 3 87 -22 87 -19 0 -25
-6 -28 -27 -4 -39 -28 -42 -28 -4 0 26 -4 31 -25 31 -25 0 -25 -1 -25 -90z"/>
<path d="M307 603 c-4 -3 -7 -84 -7 -180 l0 -173 830 0 830 0 0 180 0 180
-823 0 c-453 0 -827 -3 -830 -7z m193 -55 c1 -7 9 -62 19 -123 10 -60 17 -113
14 -117 -2 -5 -17 -8 -33 -8 -22 0 -29 5 -32 22 -5 32 -28 35 -28 4 0 -23 -4
-26 -35 -26 -41 0 -39 -9 -20 135 8 61 15 113 15 118 0 13 100 8 100 -5z m140
-38 c0 -27 5 -50 10 -50 6 0 10 15 10 34 0 52 9 66 41 66 28 0 29 -2 29 -49 0
-29 -6 -55 -14 -63 -11 -12 -11 -17 0 -33 8 -10 14 -40 14 -67 0 -46 -1 -48
-29 -48 -33 0 -41 14 -41 71 0 21 -4 39 -10 39 -5 0 -10 -25 -10 -56 l0 -55
-32 3 -33 3 -3 114 c-1 63 0 121 2 128 3 7 19 13 36 13 29 0 30 -1 30 -50z
m255 28 c4 -20 35 -225 35 -235 0 -2 -15 -3 -34 -3 -28 0 -35 4 -38 23 -4 27
-22 26 -26 -3 -3 -15 -11 -20 -32 -20 -16 0 -31 3 -33 8 -5 7 20 217 28 240 3
7 22 12 49 12 39 0 46 -3 51 -22z m249 10 c3 -7 7 -75 10 -150 l7 -138 -26 0
c-18 0 -25 5 -25 20 0 17 -7 20 -50 20 -43 0 -50 -3 -50 -20 0 -15 -7 -20 -25
-20 -23 0 -25 3 -25 50 0 28 4 50 9 50 5 0 13 26 17 58 4 31 8 64 10 72 1 8 3
27 3 43 1 27 1 27 71 27 48 0 72 -4 74 -12z m176 -12 c0 -18 -6 -25 -22 -28
-33 -4 -35 -36 -4 -48 33 -12 35 -47 4 -52 -15 -2 -24 -11 -26 -25 -3 -19 1
-23 22 -23 22 0 26 -4 26 -30 0 -30 -1 -30 -55 -30 -37 0 -55 4 -56 13 -1 27
-1 165 0 205 l1 42 55 0 c52 0 55 -2 55 -24z m146 -23 c5 -34 9 -41 11 -23 9
67 11 70 52 70 47 0 47 0 43 -152 -3 -107 -3 -108 -28 -108 -21 0 -24 4 -24
40 0 51 -18 53 -22 3 -2 -30 -8 -39 -25 -41 -19 -3 -22 3 -30 55 l-8 58 -5
-55 c-5 -51 -7 -55 -32 -58 l-28 -3 0 130 0 131 44 0 44 0 8 -47z m232 -80
l-3 -128 -32 -3 -33 -3 0 130 0 131 35 0 36 0 -3 -127z m200 0 l-3 -128 -32
-3 -33 -3 0 61 c0 38 -4 59 -10 55 -5 -3 -10 -31 -10 -61 0 -53 0 -54 -30 -54
-30 0 -30 0 -30 59 0 33 5 63 11 67 8 4 8 9 0 17 -17 17 -13 78 6 99 12 13 31
18 75 18 l59 0 -3 -127z"/>
<path d="M447 433 c-3 -16 -1 -32 4 -37 5 -6 9 4 9 27 0 44 -6 48 -13 10z"/>
<path d="M838 440 c-2 -22 0 -40 4 -40 5 0 8 18 8 40 0 22 -2 40 -4 40 -2 0
-6 -18 -8 -40z"/>
<path d="M1054 434 c-8 -68 -8 -74 8 -74 16 0 18 10 18 69 0 39 -4 72 -8 75
-5 3 -12 -29 -18 -70z"/>
<path d="M1813 494 c-3 -8 -1 -20 6 -27 8 -8 11 -4 11 16 0 30 -7 35 -17 11z"/>
</g>
</svg>
